<svg viewBox="0 0 180 114" fill="none" xmlns="http://www.w3.org/2000/svg">
<path d="M79.5586 37.2428L89.9991 26.8035L100.359 37.162L98.7543 38.7628L89.9991 30.0038L81.1606 38.8435L79.5586 37.2428Z" fill="#192A32"/>
<path d="M63.3287 29.8722L89.9981 56.5379L116.667 29.8722L89.9981 3.19787L63.3287 29.8722ZM60.1309 29.8722L89.9981 2.52312e-05L119.87 29.8722L89.9981 59.7394L60.1309 29.8722Z" fill="#192A32"/>
<path d="M4.94641 99.4478C6.33856 99.4478 7.37801 99.9098 8.26844 100.716C8.33674 100.784 8.34916 100.897 8.28086 100.965L8.0598 101.198C7.97908 101.278 7.91202 101.266 7.8313 101.181C7.04891 100.484 6.06534 100.063 4.94641 100.063C2.55455 100.063 0.680551 102.016 0.680551 104.379C0.680551 106.73 2.55455 108.672 4.94641 108.672C6.12247 108.672 7.00917 108.207 7.8313 107.525C7.91202 107.457 7.9915 107.457 8.04863 107.496L8.28086 107.729C8.34916 107.781 8.34916 107.894 8.28086 107.962C7.34945 108.861 6.16221 109.286 4.94641 109.286C2.21427 109.286 0 107.128 0 104.379C0 101.647 2.21427 99.4478 4.94641 99.4478Z" fill="#020407"/>
<path d="M14.227 108.752C15.0615 108.752 15.7831 108.247 16.0451 107.905V106.401C15.8675 106.321 15.3223 106.116 14.6641 106.116C13.6259 106.116 12.9317 106.65 12.9317 107.457C12.9317 108.247 13.4769 108.752 14.227 108.752ZM14.6641 105.623C15.2938 105.623 15.8961 105.815 16.0451 105.867C16.0451 104.668 15.9246 104.067 14.8417 104.067C13.9426 104.067 13.3241 104.396 13.2037 104.435C13.0919 104.475 13.0236 104.419 13 104.327L12.9317 104.162C12.887 104.038 12.9429 103.982 13.0112 103.959C13.0522 103.93 13.7501 103.545 14.8852 103.545C16.5506 103.545 16.6189 104.543 16.6189 105.939V108.973C16.6189 109.069 16.5381 109.15 16.4425 109.15H16.2773C16.1817 109.15 16.1407 109.094 16.1134 109.002L16.0613 108.508C15.7036 108.837 15.033 109.286 14.1587 109.286C13.1478 109.286 12.3691 108.588 12.3691 107.468C12.3691 106.417 13.2285 105.623 14.6641 105.623Z" fill="#020407"/>
<path d="M21.4131 103.862C21.4131 103.765 21.4926 103.685 21.5894 103.685H21.7534C21.8341 103.685 21.9024 103.737 21.9185 103.833L21.9744 104.396C22.111 104.202 22.6562 103.545 23.6795 103.545C24.1167 103.545 24.4184 103.669 24.5265 103.709C24.6507 103.754 24.719 103.846 24.6792 103.959L24.5699 104.231C24.5265 104.327 24.4458 104.339 24.3501 104.299C24.2818 104.271 24.0086 104.135 23.6398 104.135C22.573 104.135 22.0551 104.993 22.0142 105.077V108.973C22.0142 109.081 21.9583 109.15 21.8341 109.15H21.5609C21.469 109.15 21.4131 109.069 21.4131 108.973V103.862Z" fill="#020407"/>
<path d="M28.6063 103.862C28.6063 103.765 28.687 103.685 28.7827 103.685H29.0273C29.1242 103.685 29.2086 103.765 29.2086 103.862V108.973C29.2086 109.081 29.1515 109.15 29.0273 109.15H28.7553C28.6585 109.15 28.6063 109.069 28.6063 108.973V103.862ZM28.4424 100.551C28.4424 100.295 28.6461 100.074 28.9081 100.074C29.1689 100.074 29.3726 100.295 29.3726 100.551C29.3726 100.8 29.1689 101.005 28.9081 101.005C28.6461 101.005 28.4424 100.8 28.4424 100.551Z" fill="#020407"/>
<path d="M34.0439 103.862C34.0439 103.765 34.1234 103.685 34.2364 103.685H34.373C34.4649 103.685 34.5208 103.737 34.5332 103.822L34.5891 104.407C34.7667 104.214 35.5205 103.545 36.6109 103.545C38.1446 103.545 38.814 104.515 38.814 106.049V108.973C38.814 109.069 38.7296 109.15 38.6339 109.15H38.3893C38.2924 109.15 38.2129 109.069 38.2129 108.973V106.049C38.2129 104.788 37.623 104.135 36.5836 104.135C35.4647 104.135 34.686 105.009 34.6301 105.077V108.973C34.6301 109.081 34.578 109.15 34.4538 109.15H34.193C34.0998 109.15 34.0439 109.069 34.0439 108.973V103.862Z" fill="#020407"/>
<path d="M47.4757 105.843C47.4757 104.696 46.6982 104.094 45.7942 104.094C44.7398 104.094 44.058 104.857 44.058 105.843C44.058 106.798 44.6479 107.593 45.7942 107.593C46.8175 107.593 47.4757 106.815 47.4757 105.843ZM45.8749 112.825C47.1068 112.825 48.0494 112.102 48.0494 111.172C48.0494 110.541 47.6644 109.968 46.6535 109.968H44.9323C44.7957 109.984 43.8245 110.365 43.8245 111.296C43.8245 112.047 44.551 112.825 45.8749 112.825ZM43.9214 107.223C43.7724 107.032 43.4954 106.514 43.4954 105.856C43.4954 104.544 44.4144 103.545 45.891 103.545H48.1301C48.2382 103.545 48.3065 103.629 48.3065 103.725V103.874C48.3065 103.942 48.2667 104.026 48.186 104.038L47.2024 104.106C47.4595 104.243 48.0494 104.721 48.0494 105.856C48.0494 107.072 47.1751 108.126 45.7793 108.126C44.9609 108.126 44.4666 107.825 44.2902 107.633C44.1822 107.674 43.5923 107.974 43.5923 108.615C43.5923 109.259 44.1412 109.411 44.6715 109.411H46.6535C47.8296 109.411 48.6753 109.944 48.6753 111.16C48.6753 112.32 47.5564 113.387 45.891 113.387C44.0294 113.387 43.2235 112.291 43.2235 111.365C43.2235 110.558 43.7972 110.104 44.0853 109.928C43.8121 109.876 43.0186 109.507 43.0186 108.685C43.0186 107.77 43.7724 107.304 43.9214 107.223Z" fill="#020407"/>
<path d="M58.3924 103.862C58.3924 103.765 58.4732 103.685 58.5688 103.685H58.8134C58.9103 103.685 58.9948 103.765 58.9948 103.862V108.973C58.9948 109.081 58.9376 109.15 58.8134 109.15H58.5415C58.4446 109.15 58.3924 109.069 58.3924 108.973V103.862ZM58.2285 100.551C58.2285 100.295 58.4322 100.074 58.6942 100.074C58.955 100.074 59.1587 100.295 59.1587 100.551C59.1587 100.8 58.955 101.005 58.6942 101.005C58.4322 101.005 58.2285 100.8 58.2285 100.551Z" fill="#020407"/>
<path d="M63.5168 108.479L63.6534 108.263C63.6932 108.195 63.8012 108.166 63.8981 108.247C64.0347 108.355 64.596 108.781 65.3585 108.781C66.1409 108.781 66.67 108.344 66.67 107.81C66.67 107.184 66.0565 106.923 65.1412 106.582C64.1701 106.236 63.4609 105.815 63.4609 104.968C63.4609 104.366 63.9937 103.544 65.2505 103.544C65.9757 103.544 66.5222 103.805 66.7954 103.981C66.8749 104.038 66.9034 104.146 66.8513 104.242L66.7668 104.395C66.7147 104.488 66.6017 104.515 66.5098 104.463C66.3856 104.379 65.8404 104.078 65.2505 104.078C64.3911 104.078 64.0744 104.583 64.0744 104.952C64.0744 105.502 64.5675 105.759 65.3747 106.048C66.3967 106.429 67.2996 106.77 67.2996 107.769C67.2996 108.587 66.4539 109.285 65.3585 109.285C64.4308 109.285 63.8695 108.905 63.569 108.672C63.5168 108.632 63.4721 108.548 63.5168 108.479Z" fill="#020407"/>
<path d="M77.3788 103.862C77.3788 103.765 77.4595 103.685 77.5551 103.685H77.7998C77.8966 103.685 77.9811 103.765 77.9811 103.862V108.973C77.9811 109.081 77.924 109.15 77.7998 109.15H77.5278C77.4309 109.15 77.3788 109.069 77.3788 108.973V103.862ZM77.2148 100.551C77.2148 100.295 77.4185 100.074 77.6793 100.074C77.9413 100.074 78.145 100.295 78.145 100.551C78.145 100.8 77.9413 101.005 77.6793 101.005C77.4185 101.005 77.2148 100.8 77.2148 100.551Z" fill="#020407"/>
<path d="M82.8154 103.862C82.8154 103.765 82.8949 103.685 83.0079 103.685H83.1445C83.2364 103.685 83.2923 103.737 83.3047 103.822L83.3606 104.407C83.5382 104.214 84.292 103.545 85.3824 103.545C86.9161 103.545 87.5855 104.515 87.5855 106.049V108.973C87.5855 109.069 87.501 109.15 87.4054 109.15H87.1608C87.0639 109.15 86.9832 109.069 86.9832 108.973V106.049C86.9832 104.788 86.3945 104.135 85.3551 104.135C84.2361 104.135 83.4575 105.009 83.4016 105.077V108.973C83.4016 109.081 83.3494 109.15 83.2253 109.15H82.9645C82.8713 109.15 82.8154 109.069 82.8154 108.973V103.862Z" fill="#020407"/>
<path d="M100.412 108.724C101.616 108.724 102.559 107.701 102.559 106.401C102.559 105.145 101.616 104.118 100.412 104.118C99.1965 104.118 98.2539 105.145 98.2539 106.401C98.2539 107.701 99.1965 108.724 100.412 108.724ZM100.412 103.544C101.945 103.544 103.161 104.845 103.161 106.401C103.161 108.001 101.945 109.286 100.412 109.286C98.8674 109.286 97.6689 108.001 97.6689 106.401C97.6689 104.845 98.8674 103.544 100.412 103.544Z" fill="#020407"/>
<path d="M107.523 103.862C107.523 103.765 107.608 103.685 107.705 103.685H107.949C108.045 103.685 108.125 103.765 108.125 103.862V106.799C108.125 108.07 108.716 108.712 109.754 108.712C110.885 108.712 111.516 107.826 111.556 107.757V103.862C111.556 103.754 111.624 103.685 111.737 103.685H111.982C112.077 103.685 112.157 103.765 112.157 103.862V108.973C112.157 109.069 112.077 109.15 111.982 109.15H111.817C111.709 109.15 111.669 109.069 111.651 108.984L111.599 108.452C111.448 108.644 110.793 109.286 109.71 109.286C108.182 109.286 107.523 108.344 107.523 106.799V103.862Z" fill="#020407"/>
<path d="M117.009 103.862C117.009 103.765 117.088 103.685 117.185 103.685H117.349C117.43 103.685 117.499 103.737 117.514 103.833L117.57 104.396C117.707 104.202 118.252 103.545 119.275 103.545C119.714 103.545 120.014 103.669 120.122 103.709C120.246 103.754 120.315 103.846 120.275 103.959L120.167 104.231C120.122 104.327 120.041 104.339 119.946 104.299C119.878 104.271 119.604 104.135 119.235 104.135C118.169 104.135 117.651 104.993 117.61 105.077V108.973C117.61 109.081 117.554 109.15 117.43 109.15H117.157C117.065 109.15 117.009 109.069 117.009 108.973V103.862Z" fill="#020407"/>
<path d="M129.928 103.862C129.928 103.765 130.007 103.685 130.12 103.685H130.257C130.349 103.685 130.405 103.737 130.417 103.822L130.473 104.407C130.649 104.214 131.403 103.545 132.495 103.545C134.028 103.545 134.698 104.515 134.698 106.049V108.973C134.698 109.069 134.613 109.15 134.516 109.15H134.273C134.176 109.15 134.095 109.069 134.095 108.973V106.049C134.095 104.788 133.507 104.135 132.467 104.135C131.348 104.135 130.57 105.009 130.514 105.077V108.973C130.514 109.081 130.462 109.15 130.336 109.15H130.076C129.984 109.15 129.928 109.069 129.928 108.973V103.862Z" fill="#020407"/>
<path d="M140.889 108.752C141.724 108.752 142.446 108.247 142.707 107.905V106.401C142.53 106.321 141.984 106.116 141.327 106.116C140.288 106.116 139.593 106.65 139.593 107.457C139.593 108.247 140.139 108.752 140.889 108.752ZM141.327 105.623C141.956 105.623 142.558 105.815 142.707 105.867C142.707 104.668 142.582 104.067 141.503 104.067C140.605 104.067 139.986 104.396 139.866 104.435C139.754 104.475 139.686 104.419 139.662 104.327L139.593 104.162C139.549 104.038 139.605 103.982 139.673 103.959C139.714 103.93 140.411 103.545 141.547 103.545C143.213 103.545 143.281 104.543 143.281 105.939V108.973C143.281 109.069 143.2 109.15 143.103 109.15H142.939C142.843 109.15 142.803 109.094 142.776 109.002L142.723 108.508C142.366 108.837 141.695 109.286 140.821 109.286C139.81 109.286 139.031 108.588 139.031 107.468C139.031 106.417 139.889 105.623 141.327 105.623Z" fill="#020407"/>
<path d="M148.307 104.215H147.665C147.528 104.215 147.501 104.146 147.501 104.038V103.822C147.501 103.725 147.568 103.686 147.665 103.686H148.307V102.193C148.307 102.085 148.386 102.015 148.485 102.015L148.717 102.004C148.812 102.004 148.893 102.085 148.893 102.18V103.686H150.794C150.904 103.686 150.972 103.765 150.972 103.862V104.038C150.972 104.146 150.904 104.215 150.794 104.215H148.893V107.702C148.893 108.344 148.96 108.7 149.603 108.7C150.085 108.7 150.67 108.439 150.847 108.331C150.972 108.263 151.027 108.315 151.068 108.384L151.165 108.548C151.217 108.644 151.204 108.724 151.12 108.781C150.916 108.945 150.318 109.285 149.534 109.285C148.404 109.285 148.307 108.616 148.307 107.742V104.215Z" fill="#020407"/>
<path d="M155.253 103.862C155.253 103.765 155.336 103.685 155.434 103.685H155.679C155.775 103.685 155.854 103.765 155.854 103.862V106.799C155.854 108.07 156.444 108.712 157.483 108.712C158.615 108.712 159.246 107.826 159.285 107.757V103.862C159.285 103.754 159.354 103.685 159.467 103.685H159.71C159.807 103.685 159.886 103.765 159.886 103.862V108.973C159.886 109.069 159.807 109.15 159.71 109.15H159.546C159.437 109.15 159.397 109.069 159.381 108.984L159.329 108.452C159.176 108.644 158.523 109.286 157.44 109.286C155.91 109.286 155.253 108.344 155.253 106.799V103.862Z" fill="#020407"/>
<path d="M164.738 103.862C164.738 103.765 164.818 103.685 164.915 103.685H165.079C165.159 103.685 165.228 103.737 165.244 103.833L165.3 104.396C165.436 104.202 165.981 103.545 167.005 103.545C167.443 103.545 167.744 103.669 167.852 103.709C167.976 103.754 168.044 103.846 168.004 103.959L167.895 104.231C167.852 104.327 167.771 104.339 167.674 104.299C167.607 104.271 167.334 104.135 166.965 104.135C165.898 104.135 165.38 104.993 165.339 105.077V108.973C165.339 109.081 165.283 109.15 165.159 109.15H164.886C164.794 109.15 164.738 109.069 164.738 108.973V103.862Z" fill="#020407"/>
<path d="M176.061 106.088C176.061 105.021 175.417 104.094 174.187 104.094C172.982 104.094 172.176 104.969 172.108 106.088H176.061ZM174.187 103.545C175.622 103.545 176.662 104.599 176.662 106.049C176.662 106.265 176.662 106.581 176.457 106.581H172.096C172.154 107.757 172.999 108.741 174.226 108.741C174.953 108.741 175.515 108.452 175.839 108.235C175.964 108.151 176.021 108.139 176.088 108.235L176.224 108.423C176.265 108.479 176.248 108.563 176.169 108.644C175.895 108.917 175.034 109.286 174.187 109.286C172.521 109.286 171.494 108.002 171.494 106.401C171.494 104.845 172.521 103.545 174.187 103.545Z" fill="#020407"/>
<path d="M12.5849 95.2752H10.085L5.10998 80.9427L5.43536 80.4658H9.67638V70.6127H3.56881V95.2752H1.19434V68.509H10.1533C10.7158 68.509 11.1679 68.6865 11.5218 69.0392C11.8745 69.3919 12.0558 69.8489 12.0558 70.4078V80.5664C12.0558 81.8542 11.1877 82.5 9.45532 82.5C9.2827 82.5 9.0306 82.4925 8.7015 82.4714C8.3724 82.4565 8.13148 82.4478 7.98245 82.4478C9.52363 86.7124 11.0561 90.9907 12.5849 95.2752Z" fill="#1E2E34"/>
<path d="M22.9684 80.5348H18.0742V85.5458H22.9684V80.5348ZM25.1715 93.3411C25.1715 94.6289 24.5332 95.2747 23.2578 95.2747H17.7848C16.5082 95.2747 15.8711 94.6289 15.8711 93.3411V80.5659C15.8711 79.2793 16.5082 78.636 17.7848 78.636H23.2578C24.5332 78.636 25.1715 79.2793 25.1715 80.5659V86.553L24.4053 87.3552H18.0742V93.3771H22.9684V90.332H25.1715V93.3411Z" fill="#1E2E34"/>
<path d="M36.1328 93.205V87.3235H31.0535V93.3094L36.1328 93.205ZM38.3396 95.2753H36.1005V94.8133C35.1977 94.9387 34.2985 95.0592 33.3969 95.1709C32.2805 95.3113 31.3863 95.3796 30.712 95.3796C29.4689 95.3796 28.8467 94.7611 28.8467 93.5304V87.4601C28.8467 86.1835 29.4925 85.5464 30.7803 85.5464H36.1328V80.5341H31.2423V83.3718H29.0354V80.5664C29.0354 79.2786 29.6725 78.6365 30.9529 78.6365H36.4259C37.7013 78.6365 38.3396 79.2786 38.3396 80.5664V95.2753Z" fill="#1E2E34"/>
<path d="M44.4471 95.2747H42.208V68.5084H44.4471V95.2747Z" fill="#1E2E34"/>
<path d="M64.2346 95.2752H55.4434V68.509H64.1303V70.6127H57.8191V80.6024H63.569V82.7409H57.8191V93.1727H64.2346V95.2752Z" fill="#1E2E34"/>
<path d="M76.6324 93.3415C76.6324 94.6294 75.9903 95.2751 74.7025 95.2751H69.4829C68.1951 95.2751 67.5518 94.6294 67.5518 93.3415V89.5625H69.7909V93.3092H74.3933V89.9909L68.4385 85.1166C67.8697 84.6583 67.584 84.0697 67.584 83.3394V80.5663C67.584 79.2785 68.2298 78.6364 69.5177 78.6364H74.6665C75.9543 78.6364 76.6001 79.2785 76.6001 80.5663V83.8846H74.3933V80.6023H69.7909V83.5071L75.7941 88.3827C76.3554 88.8273 76.6324 89.4333 76.6324 90.1959V93.3415Z" fill="#1E2E34"/>
<path d="M86.2306 95.2752H82.9967C81.7201 95.2752 81.0792 94.6294 81.0792 93.3416V80.6347H79.0811V78.6365H81.0792V73.4529H83.3208V78.6365H86.2306V80.6347H83.3208V93.2733H86.2306V95.2752Z" fill="#1E2E34"/>
<path d="M96.333 93.205V87.3235H91.2537V93.3094L96.333 93.205ZM98.5398 95.2753H96.3007V94.8133C95.3991 94.9387 94.4987 95.0592 93.5971 95.1709C92.4807 95.3113 91.5865 95.3796 90.9122 95.3796C89.6691 95.3796 89.0469 94.7611 89.0469 93.5304V87.4601C89.0469 86.1835 89.6927 85.5464 90.9805 85.5464H96.333V80.5341H91.4425V83.3718H89.2356V80.5664C89.2356 79.2786 89.8727 78.6365 91.1531 78.6365H96.6261C97.9015 78.6365 98.5398 79.2786 98.5398 80.5664V95.2753Z" fill="#1E2E34"/>
<path d="M108.257 95.2752H105.023C103.748 95.2752 103.106 94.6294 103.106 93.3416V80.6347H101.107V78.6365H103.106V73.4529H105.348V78.6365H108.257V80.6347H105.348V93.2733H108.257V95.2752Z" fill="#1E2E34"/>
<path d="M118.263 80.5348H113.369V85.5458H118.263V80.5348ZM120.466 93.3411C120.466 94.6289 119.829 95.2747 118.553 95.2747H113.08C111.804 95.2747 111.166 94.6289 111.166 93.3411V80.5659C111.166 79.2793 111.804 78.636 113.08 78.636H118.553C119.829 78.636 120.466 79.2793 120.466 80.5659V86.553L119.7 87.3552H113.369V93.3771H118.263V90.332H120.466V93.3411Z" fill="#1E2E34"/>
<path d="M142.082 93.3773C142.082 93.9349 141.9 94.3919 141.536 94.7459C141.171 95.0986 140.709 95.2749 140.15 95.2749H133.259C132.7 95.2749 132.243 95.0986 131.889 94.7459C131.537 94.3919 131.36 93.9349 131.36 93.3773V70.4075C131.36 69.8499 131.537 69.3929 131.889 69.0389C132.243 68.6862 132.7 68.5099 133.259 68.5099H140.15C140.709 68.5099 141.171 68.6862 141.536 69.0389C141.9 69.3929 142.082 69.8499 142.082 70.4075V76.6343H139.69V70.6124H133.735V93.1724H139.69V86.5892H142.082V93.3773Z" fill="#1E2E34"/>
<path d="M153.167 93.205V87.3235H148.086V93.3094L153.167 93.205ZM155.373 95.2753H153.135V94.8133C152.232 94.9387 151.333 95.0592 150.43 95.1709C149.315 95.3113 148.421 95.3796 147.746 95.3796C146.502 95.3796 145.881 94.7611 145.881 93.5304V87.4601C145.881 86.1835 146.525 85.5464 147.813 85.5464H153.167V80.5341H148.276V83.3718H146.068V80.5664C146.068 79.2786 146.707 78.6365 147.986 78.6365H153.459C154.735 78.6365 155.373 79.2786 155.373 80.5664V95.2753Z" fill="#1E2E34"/>
<path d="M167.802 84.1092H165.563V80.6705L161.374 80.8071V95.275H159.101V78.6363H161.374V79.0983C162.126 78.9815 162.883 78.8611 163.646 78.7369C164.561 78.6003 165.319 78.532 165.921 78.532C167.177 78.532 167.802 79.1541 167.802 80.3985V84.1092Z" fill="#1E2E34"/>
<path d="M177.795 80.5348H172.901V85.5458H177.795V80.5348ZM180 93.3411C180 94.6289 179.361 95.2747 178.086 95.2747H172.613C171.336 95.2747 170.699 94.6289 170.699 93.3411V80.5659C170.699 79.2793 171.336 78.636 172.613 78.636H178.086C179.361 78.636 180 79.2793 180 80.5659V86.553L179.233 87.3552H172.901V93.3771H177.795V90.332H180V93.3411Z" fill="#1E2E34"/>
</svg>
